<svg preserveAspectRatio="none" overflow="visible" style="display: block;" width="24" height="24" viewBox="0 0 24 24" fill="none" xmlns="http://www.w3.org/2000/svg">
<g id="carbon:phone-incoming">
<path id="Vector" d="M19.5 21.75H19.3725C4.635 20.9025 2.5425 8.4675 2.25 4.6725C2.20428 4.07756 2.39676 3.48883 2.7851 3.03579C3.17343 2.58276 3.72582 2.30253 4.32075 2.25675C4.38025 2.25225 4.44 2.25 4.5 2.25H8.4525C8.75292 2.24971 9.0465 2.33963 9.29522 2.50812C9.54395 2.67661 9.73635 2.9159 9.8475 3.195L10.9875 6C11.0973 6.27266 11.1245 6.57156 11.0658 6.85957C11.0072 7.14758 10.8652 7.412 10.6575 7.62L9.06 9.2325C9.30852 10.651 9.98729 11.9587 11.0043 12.9784C12.0212 13.998 13.3272 14.6802 14.745 14.9325L16.3725 13.32C16.5836 13.1146 16.8505 12.9759 17.14 12.9213C17.4294 12.8666 17.7285 12.8983 18 13.0125L20.8275 14.145C21.1024 14.2597 21.3369 14.4536 21.5012 14.702C21.6655 14.9504 21.7521 15.2422 21.75 15.54V19.5C21.75 20.0967 21.5129 20.669 21.091 21.091C20.669 21.5129 20.0967 21.75 19.5 21.75ZM4.5 3.75C4.40151 3.7497 4.30392 3.76881 4.21282 3.80623C4.12171 3.84365 4.03886 3.89864 3.96901 3.96808C3.89916 4.03751 3.84366 4.12003 3.8057 4.21091C3.76774 4.30179 3.74805 4.39926 3.74775 4.49775C3.74775 4.51875 3.7485 4.5395 3.75 4.56C4.095 9 6.3075 19.5 19.455 20.25C19.6535 20.2619 19.8486 20.1945 19.9974 20.0625C20.1462 19.9306 20.2365 19.745 20.2485 19.5465L20.25 19.5V15.54L17.4225 14.4075L15.27 16.545L14.91 16.5C8.385 15.6825 7.5 9.1575 7.5 9.09L7.455 8.73L9.585 6.5775L8.46 3.75H4.5Z" fill="#2F1A0D"/>
<path id="Vector_2" d="M20.25 9.75V8.25H16.8105L21.75 3.3105L20.6895 2.25L15.75 7.1895V3.75H14.25V9.75H20.25Z" fill="#2F1A0D"/>
</g>
</svg>
