<svg preserveAspectRatio="none" overflow="visible" style="display: block;" width="24" height="24" viewBox="0 0 24 24" fill="none" xmlns="http://www.w3.org/2000/svg">
<g id="bi:star-half" clip-path="url(#clip0_0_21)">
<path id="Vector" d="M8.031 7.6785L11.307 1.188C11.3705 1.05787 11.4689 0.94797 11.5913 0.870613C11.7137 0.793256 11.8552 0.751493 12 0.75C12.2745 0.75 12.549 0.8955 12.6975 1.188L15.9735 7.6785L23.3205 8.7225C23.5033 8.75208 23.6704 8.84339 23.7941 8.98123C23.9177 9.11906 23.9904 9.29509 24 9.48C24.0103 9.60326 23.9927 9.72725 23.9485 9.84279C23.9044 9.95833 23.8348 10.0625 23.745 10.1475L18.4605 15.1815L19.7055 22.2765C19.8225 22.941 19.1655 23.4615 18.5865 23.1645L12 19.7805L5.4165 23.1645C5.34782 23.2007 5.27394 23.226 5.1975 23.2395C4.6845 23.3295 4.1955 22.8585 4.2975 22.2765L5.5425 15.1815L0.2595 10.1475C0.177368 10.0698 0.112085 9.97604 0.0677028 9.87205C0.0233206 9.76806 0.000786684 9.65606 0.0015 9.543C0.00307091 9.38337 0.0470753 9.22702 0.129 9.09C0.187847 8.99089 0.268329 8.90636 0.364434 8.84272C0.460539 8.77909 0.569781 8.73799 0.684 8.7225L8.031 7.6785ZM12 18.0405C12.1211 18.04 12.2405 18.0688 12.348 18.1245L17.877 20.9655L16.836 15.03C16.8108 14.8935 16.8197 14.7529 16.8621 14.6207C16.9045 14.4885 16.9791 14.3689 17.079 14.2725L21.4395 10.1175L15.3615 9.2535C15.2359 9.23389 15.1167 9.18443 15.0142 9.10926C14.9116 9.03409 14.8285 8.93541 14.772 8.8215L12.0015 3.3345L12 3.339V18.0405Z" fill="#955615"/>
</g>
<defs>
<clipPath id="clip0_0_21">
<rect width="24" height="24" fill="white"/>
</clipPath>
</defs>
</svg>
